<?xml version="1.0" encoding="UTF-8"?><svg xmlns="http://www.w3.org/2000/svg" viewBox="0 0 117.03 123.18"><defs><style>.j{fill:#2e7abe;}</style></defs><g id="a"/><g id="b"><g id="c"><g><text/><g><g id="d"><path id="e" class="j" d="M99.03,46.33l3.9-1.99h-18.95l-7.52,10.41-3.56,4.94,4.94-2.53,8.15,14.25h-25.12l6.02,11.9-6.02,11.9h38.86l13.74-23.8-14.45-25.07Z"/></g><g id="f"><path id="g" class="j" d="M86,0H44.78L26.77,31.53l-4.98-2.54,11.09,15.35h18.95l-3.85-1.96,10.53-18.58h27.48l-6.24-11.9L86,0Z"/></g><g id="h"><path id="i" class="j" d="M60.85,83.36l.03-.06-6.01-11.89h-.09l-2.48-4.86v4.86H31.03l12.31-21.04h-13.89l-7.47-10.5L3.55,71.4l13.74,23.79H52.24v5.06l2.59-5.06h.04l1.91-3.77,4.11-8.01-.04-.06Z"/></g></g><g><path class="j" d="M12.11,116.5c-.01,.23-.02,.44-.02,.63-.01,.17-.02,.34-.02,.51s0,.29-.02,.38c-.06,.74-.27,1.43-.6,2.06-.34,.63-.77,1.18-1.31,1.64-.53,.46-1.14,.81-1.84,1.07-.69,.26-1.42,.39-2.18,.39-.84,0-1.63-.16-2.37-.48-.74-.32-1.39-.76-1.95-1.31-.56-.55-1-1.2-1.32-1.94-.32-.74-.49-1.53-.49-2.37s.16-1.63,.49-2.38c.32-.75,.77-1.4,1.32-1.95,.56-.55,1.21-.99,1.95-1.31s1.53-.48,2.37-.48c1.06,0,2.04,.25,2.93,.74,.89,.49,1.6,1.16,2.15,1.98l-1.93,1.18c-.34-.51-.79-.93-1.35-1.27-.55-.34-1.15-.52-1.8-.52-.54,0-1.04,.11-1.51,.33-.47,.22-.88,.51-1.23,.88-.35,.37-.63,.79-.83,1.28-.2,.49-.31,1-.31,1.52s.1,1.05,.31,1.53c.2,.48,.48,.91,.83,1.27,.35,.37,.76,.66,1.23,.88,.47,.22,.97,.33,1.51,.33,.41,0,.8-.06,1.18-.19,.38-.12,.72-.3,1.03-.52,.31-.23,.58-.49,.81-.81,.23-.31,.4-.66,.51-1.03H5.3v-2.03h6.8Z"/><path class="j" d="M13.93,122.95l6.03-11.78h.23l6.03,11.78h-2.45l-.92-1.85h-5.56l-.9,1.85h-2.45Zm4.45-3.82h3.37l-1.68-3.56-1.69,3.56Z"/><path class="j" d="M30.85,122.95h-2.26v-11.8h5.36c.6,0,1.15,.1,1.66,.3,.5,.2,.93,.48,1.28,.84,.36,.36,.63,.79,.83,1.29,.2,.5,.3,1.05,.3,1.64,0,.89-.22,1.67-.67,2.34-.45,.67-1.04,1.14-1.78,1.43,.99,1.31,1.97,2.63,2.94,3.97h-2.69c-.47-.61-.93-1.23-1.38-1.85-.45-.62-.9-1.26-1.35-1.9h-2.23v3.76Zm0-5.75h3.1c.2,0,.41-.04,.63-.12,.22-.08,.42-.2,.59-.37,.17-.17,.31-.37,.43-.62,.11-.25,.17-.54,.17-.87,0-.17-.02-.38-.06-.61-.04-.24-.13-.46-.26-.68-.13-.21-.31-.4-.55-.55-.24-.15-.55-.23-.95-.23h-3.1v4.05Z"/><path class="j" d="M50.47,114.43c0,.24-.05,.49-.15,.76-.1,.27-.23,.52-.4,.74-.17,.23-.37,.42-.6,.57-.24,.16-.49,.24-.77,.25,.29,.02,.58,.1,.86,.25,.28,.14,.54,.34,.77,.59,.23,.25,.41,.53,.56,.85,.15,.32,.22,.66,.22,1.03,0,.64-.1,1.19-.29,1.63s-.46,.8-.79,1.08c-.33,.27-.72,.47-1.17,.59-.45,.12-.92,.18-1.43,.18h-5.45v-11.8h5.19c.47,0,.92,.05,1.34,.14,.42,.09,.78,.26,1.1,.5,.31,.24,.56,.58,.74,1,.18,.43,.27,.97,.27,1.64Zm-6.38,1.52h2.77c.23,0,.42-.04,.59-.13,.17-.09,.31-.2,.42-.34,.11-.14,.2-.3,.26-.48,.06-.18,.09-.35,.09-.53s-.03-.34-.1-.5c-.06-.16-.15-.3-.26-.42-.11-.12-.23-.22-.38-.29-.15-.08-.3-.11-.46-.11h-2.93v2.8Zm3.19,5c.19,0,.38-.05,.55-.14,.17-.09,.32-.21,.45-.37,.13-.16,.23-.33,.31-.52,.08-.19,.11-.38,.11-.57,0-.4-.15-.73-.44-1-.3-.27-.7-.4-1.22-.4h-2.95v3h3.19Z"/><path class="j" d="M52.95,122.95l6.03-11.78h.23l6.03,11.78h-2.45l-.92-1.85h-5.56l-.9,1.85h-2.45Zm4.45-3.82h3.37l-1.68-3.56-1.69,3.56Z"/><path class="j" d="M78.96,116.5c-.01,.23-.02,.44-.02,.63-.01,.17-.02,.34-.02,.51s0,.29-.02,.38c-.06,.74-.27,1.43-.6,2.06-.34,.63-.77,1.18-1.31,1.64-.53,.46-1.14,.81-1.84,1.07-.69,.26-1.42,.39-2.18,.39-.84,0-1.63-.16-2.37-.48-.74-.32-1.39-.76-1.95-1.31-.56-.55-1-1.2-1.32-1.94-.32-.74-.49-1.53-.49-2.37s.16-1.63,.49-2.38c.32-.75,.77-1.4,1.32-1.95,.56-.55,1.21-.99,1.95-1.31s1.53-.48,2.37-.48c1.06,0,2.04,.25,2.93,.74,.89,.49,1.6,1.16,2.15,1.98l-1.93,1.18c-.34-.51-.79-.93-1.35-1.27-.55-.34-1.15-.52-1.8-.52-.54,0-1.04,.11-1.51,.33-.47,.22-.88,.51-1.23,.88-.35,.37-.63,.79-.83,1.28-.2,.49-.31,1-.31,1.52s.1,1.05,.31,1.53c.2,.48,.48,.91,.83,1.27,.35,.37,.76,.66,1.23,.88,.47,.22,.97,.33,1.51,.33,.41,0,.8-.06,1.18-.19,.38-.12,.72-.3,1.03-.52,.31-.23,.58-.49,.81-.81,.23-.31,.4-.66,.51-1.03h-4.35v-2.03h6.8Z"/><path class="j" d="M84.73,113.15v2.95h5.71v2.05h-5.71v2.77h6.43v2.03h-8.69v-11.8h8.69v2h-6.43Z"/><path class="j" d="M97.37,122.95h-2.26v-11.8h5.36c.6,0,1.15,.1,1.66,.3,.5,.2,.93,.48,1.28,.84,.36,.36,.63,.79,.83,1.29,.2,.5,.3,1.05,.3,1.64,0,.89-.22,1.67-.67,2.34-.45,.67-1.04,1.14-1.78,1.43,.99,1.31,1.97,2.63,2.94,3.97h-2.69c-.47-.61-.93-1.23-1.38-1.85-.45-.62-.9-1.26-1.35-1.9h-2.23v3.76Zm0-5.75h3.1c.2,0,.41-.04,.63-.12,.22-.08,.42-.2,.59-.37,.17-.17,.31-.37,.43-.62,.11-.25,.17-.54,.17-.87,0-.17-.02-.38-.06-.61-.04-.24-.13-.46-.26-.68-.13-.21-.31-.4-.55-.55-.24-.15-.55-.23-.95-.23h-3.1v4.05Z"/><path class="j" d="M110.6,113.15v2.95h5.71v2.05h-5.71v2.77h6.43v2.03h-8.69v-11.8h8.69v2h-6.43Z"/></g></g></g></g></svg>